<svg width="478" height="88" viewBox="0 0 478 88" fill="none" xmlns="http://www.w3.org/2000/svg">
<path d="M134.268 79.9999V80.9999H135.268H177.881H178.881V79.9999V72.1874V71.1874H177.881H145.075V7.27264V6.27264H144.075H135.268H134.268V7.27264V79.9999ZM254.348 18.7024L254.35 18.704C257.742 20.8154 260.452 23.9389 262.465 28.1251L262.467 28.129C264.491 32.29 265.527 37.4457 265.527 43.6363C265.527 49.8268 264.491 54.9826 262.467 59.1435L262.465 59.1475C260.452 63.3336 257.742 66.4572 254.35 68.5686L254.348 68.5702C250.964 70.6906 247.173 71.7556 242.947 71.7556C238.722 71.7556 234.918 70.6908 231.509 68.5692C228.141 66.4579 225.43 63.3338 223.393 59.1459C221.392 54.9842 220.368 49.8274 220.368 43.6363C220.368 37.4452 221.392 32.2885 223.393 28.1268C225.43 23.9388 228.141 20.8145 231.51 18.7032C234.918 16.5817 238.722 15.517 242.947 15.517C247.173 15.517 250.964 16.5819 254.348 18.7024ZM363.623 30.3105L363.848 30.9999H364.574H373.664H374.87L374.647 29.8152C373.964 26.1772 372.715 22.8552 370.897 19.858C369.086 16.8474 366.818 14.2605 364.098 12.103C361.4 9.92046 358.326 8.24477 354.886 7.07311C351.457 5.87358 347.771 5.27832 343.835 5.27832C339.045 5.27832 334.631 6.16653 330.609 7.95707C326.592 9.74505 323.113 12.3185 320.178 15.6691C317.24 19.0234 314.977 23.0724 313.378 27.7972L313.377 27.8001C311.798 32.5125 311.017 37.7951 311.017 43.6363C311.017 51.4226 312.387 58.2066 315.165 63.9576L315.166 63.9607C317.963 69.7014 321.873 74.1588 326.899 77.297L326.901 77.2982C331.955 80.4385 337.801 81.9942 344.403 81.9942C350.322 81.9942 355.604 80.7558 360.221 78.251L360.223 78.2501C364.859 75.7234 368.497 72.1593 371.122 67.5728C373.78 62.9696 375.091 57.5831 375.091 51.4488V43.6363V42.6363H374.091H346.392H345.392V43.6363V51.4488V52.4488H346.392H364.528C364.34 56.0986 363.486 59.2792 361.992 62.0131L361.99 62.0153C360.303 65.1195 357.951 67.5151 354.921 69.2208C351.919 70.9005 348.423 71.7556 344.403 71.7556C340.079 71.7556 336.215 70.6884 332.784 68.567C329.368 66.4545 326.635 63.3298 324.599 59.1435C322.576 54.9826 321.539 49.8268 321.539 43.6363C321.539 37.4444 322.564 32.2871 324.566 28.125C326.58 23.9355 329.269 20.8114 332.614 18.7008C335.977 16.5796 339.708 15.517 343.835 15.517C346.372 15.517 348.682 15.8598 350.772 16.534C352.869 17.2102 354.728 18.1866 356.359 19.46L356.364 19.464C358.024 20.7427 359.452 22.2925 360.647 24.1199L360.651 24.1259L360.655 24.1318C361.877 25.9415 362.868 27.9988 363.623 30.3105ZM454.836 18.7024L454.839 18.704C458.23 20.8154 460.94 23.9389 462.953 28.1251L462.955 28.129C464.979 32.29 466.015 37.4457 466.015 43.6363C466.015 49.8268 464.979 54.9826 462.955 59.1435L462.953 59.1475C460.94 63.3336 458.23 66.4572 454.839 68.5686L454.836 68.5702C451.453 70.6906 447.661 71.7556 443.435 71.7556C439.21 71.7556 435.406 70.6908 431.998 68.5692C428.629 66.4577 425.918 63.3331 423.881 59.1446C421.88 54.9831 420.856 49.8268 420.856 43.6363C420.856 37.4459 421.88 32.2895 423.881 28.128C425.918 23.9394 428.629 20.8147 431.998 18.7032C435.406 16.5817 439.21 15.517 443.435 15.517C447.661 15.517 451.453 16.5819 454.836 18.7024ZM271.791 63.9668C274.643 58.2135 276.049 51.426 276.049 43.6363C276.049 35.8465 274.643 29.059 271.791 23.3057C268.947 17.5693 265.027 13.1142 260.027 9.97671C255.024 6.83773 249.321 5.27832 242.947 5.27832C236.574 5.27832 230.87 6.83773 225.867 9.97671C220.867 13.1142 216.948 17.5693 214.104 23.3057C211.252 29.059 209.845 35.8465 209.845 43.6363C209.845 51.426 211.252 58.2135 214.104 63.9668C216.948 69.7033 220.867 74.1583 225.867 77.2958C230.87 80.4348 236.574 81.9942 242.947 81.9942C249.321 81.9942 255.024 80.4348 260.027 77.2958C265.027 74.1583 268.947 69.7033 271.791 63.9668ZM472.279 63.9668C475.131 58.2135 476.538 51.426 476.538 43.6363C476.538 35.8465 475.131 29.059 472.279 23.3057C469.435 17.5693 465.516 13.1142 460.515 9.97671C455.512 6.83773 449.809 5.27832 443.435 5.27832C437.062 5.27832 431.358 6.83773 426.356 9.97671C421.355 13.1142 417.436 17.5693 414.592 23.3057C411.74 29.059 410.333 35.8465 410.333 43.6363C410.333 51.426 411.74 58.2135 414.592 63.9668C417.436 69.7033 421.355 74.1583 426.356 77.2958C431.358 80.4348 437.062 81.9942 443.435 81.9942C449.809 81.9942 455.512 80.4348 460.515 77.2958C465.516 74.1583 469.435 69.7033 472.279 63.9668Z" fill="#FF0101" stroke="#FF0101" stroke-width="2"/>
<path d="M101.75 26.125V8.25H83.875V0H101.75C103.95 0 105.875 0.824999 107.525 2.475C109.175 4.125 110 6.05 110 8.25V26.125H101.75ZM0 26.125V8.25C0 6.05 0.825 4.125 2.475 2.475C4.125 0.824999 6.05 0 8.25 0H26.125V8.25H8.25V26.125H0ZM83.875 88V79.75H101.75V61.875H110V79.75C110 81.95 109.175 83.875 107.525 85.525C105.875 87.175 103.95 88 101.75 88H83.875ZM8.25 88C6.05 88 4.125 87.175 2.475 85.525C0.825 83.875 0 81.95 0 79.75V61.875H8.25V79.75H26.125V88H8.25ZM16.5 71.5V16.5H93.5V71.5H16.5ZM24.75 63.25H85.25V24.75H24.75V63.25ZM24.75 63.25V24.75V63.25Z" fill="#FF0101"/>
</svg>
