<svg width="478" height="88" viewBox="0 0 478 88" fill="none" xmlns="http://www.w3.org/2000/svg">
<path d="M134.268 80V81H135.268H177.881H178.881V80V72.1875V71.1875H177.881H145.075V7.2727V6.2727H144.075H135.268H134.268V7.2727V80ZM254.348 18.7025L254.35 18.704C257.742 20.8154 260.452 23.939 262.465 28.1251L262.467 28.1291C264.491 32.29 265.527 37.4458 265.527 43.6363C265.527 49.8269 264.491 54.9827 262.467 59.1436L262.465 59.1476C260.452 63.3337 257.742 66.4572 254.35 68.5686L254.348 68.5702C250.964 70.6907 247.173 71.7557 242.947 71.7557C238.722 71.7557 234.918 70.6909 231.509 68.5693C228.141 66.458 225.43 63.3338 223.393 59.146C221.392 54.9843 220.368 49.8275 220.368 43.6363C220.368 37.4453 221.392 32.2886 223.393 28.1268C225.43 23.9388 228.141 20.8146 231.51 18.7033C234.918 16.5817 238.722 15.517 242.947 15.517C247.173 15.517 250.964 16.582 254.348 18.7025ZM363.623 30.3106L363.848 31H364.574H373.664H374.87L374.647 29.8153C373.964 26.1773 372.715 22.8552 370.897 19.858C369.086 16.8474 366.818 14.2606 364.098 12.103C361.4 9.92052 358.326 8.24483 354.886 7.07317C351.457 5.87364 347.771 5.27838 343.835 5.27838C339.045 5.27838 334.631 6.16659 330.609 7.95713C326.592 9.74511 323.113 12.3186 320.178 15.6692C317.24 19.0235 314.977 23.0725 313.378 27.7973L313.377 27.8002C311.798 32.5125 311.017 37.7952 311.017 43.6363C311.017 51.4226 312.387 58.2067 315.165 63.9577L315.166 63.9608C317.963 69.7014 321.873 74.1589 326.899 77.2971L326.901 77.2982C331.955 80.4386 337.801 81.9943 344.403 81.9943C350.322 81.9943 355.604 80.7559 360.221 78.2511L360.223 78.2502C364.859 75.7235 368.497 72.1594 371.122 67.5728C373.78 62.9697 375.091 57.5831 375.091 51.4488V43.6363V42.6363H374.091H346.392H345.392V43.6363V51.4488V52.4488H346.392H364.528C364.34 56.0987 363.486 59.2793 361.992 62.0131L361.99 62.0154C360.303 65.1196 357.951 67.5151 354.921 69.2208C351.919 70.9006 348.423 71.7557 344.403 71.7557C340.079 71.7557 336.215 70.6885 332.784 68.5671C329.368 66.4546 326.635 63.3299 324.599 59.1436C322.576 54.9827 321.539 49.8269 321.539 43.6363C321.539 37.4444 322.564 32.2871 324.566 28.1251C326.58 23.9356 329.269 20.8115 332.614 18.7008C335.977 16.5797 339.708 15.517 343.835 15.517C346.372 15.517 348.682 15.8599 350.772 16.5341C352.869 17.2103 354.728 18.1867 356.359 19.4601L356.364 19.4641C358.024 20.7427 359.452 22.2926 360.647 24.1199L360.651 24.1259L360.655 24.1319C361.877 25.9416 362.868 27.9989 363.623 30.3106ZM454.836 18.7025L454.839 18.704C458.23 20.8154 460.94 23.939 462.953 28.1251L462.955 28.1291C464.979 32.29 466.015 37.4458 466.015 43.6363C466.015 49.8269 464.979 54.9827 462.955 59.1436L462.953 59.1476C460.94 63.3337 458.23 66.4572 454.839 68.5686L454.836 68.5702C451.453 70.6907 447.661 71.7557 443.435 71.7557C439.21 71.7557 435.406 70.6909 431.998 68.5693C428.629 66.4577 425.918 63.3332 423.881 59.1447C421.88 54.9831 420.856 49.8268 420.856 43.6363C420.856 37.446 421.88 32.2895 423.881 28.128C425.918 23.9394 428.629 20.8148 431.998 18.7033C435.406 16.5817 439.21 15.517 443.435 15.517C447.661 15.517 451.453 16.582 454.836 18.7025ZM271.791 63.9669C274.643 58.2136 276.049 51.4261 276.049 43.6363C276.049 35.8466 274.643 29.0591 271.791 23.3058C268.947 17.5694 265.027 13.1143 260.027 9.97677C255.024 6.8378 249.321 5.27838 242.947 5.27838C236.574 5.27838 230.87 6.8378 225.867 9.97677C220.867 13.1143 216.948 17.5694 214.104 23.3058C211.252 29.0591 209.845 35.8466 209.845 43.6363C209.845 51.4261 211.252 58.2136 214.104 63.9669C216.948 69.7033 220.867 74.1584 225.867 77.2959C230.87 80.4349 236.574 81.9943 242.947 81.9943C249.321 81.9943 255.024 80.4349 260.027 77.2959C265.027 74.1584 268.947 69.7033 271.791 63.9669ZM472.279 63.9669C475.131 58.2136 476.538 51.4261 476.538 43.6363C476.538 35.8466 475.131 29.0591 472.279 23.3058C469.435 17.5694 465.516 13.1143 460.515 9.97677C455.512 6.8378 449.809 5.27838 443.435 5.27838C437.062 5.27838 431.358 6.8378 426.356 9.97677C421.355 13.1143 417.436 17.5694 414.592 23.3058C411.74 29.0591 410.333 35.8466 410.333 43.6363C410.333 51.4261 411.74 58.2136 414.592 63.9669C417.436 69.7033 421.355 74.1584 426.356 77.2959C431.358 80.4349 437.062 81.9943 443.435 81.9943C449.809 81.9943 455.512 80.4349 460.515 77.2959C465.516 74.1584 469.435 69.7033 472.279 63.9669Z" fill="black" stroke="black" stroke-width="2"/>
<path d="M101.75 26.125V8.25H83.875V0H101.75C103.95 0 105.875 0.824999 107.525 2.475C109.175 4.125 110 6.05 110 8.25V26.125H101.75ZM0 26.125V8.25C0 6.05 0.825 4.125 2.475 2.475C4.125 0.824999 6.05 0 8.25 0H26.125V8.25H8.25V26.125H0ZM83.875 88V79.75H101.75V61.875H110V79.75C110 81.95 109.175 83.875 107.525 85.525C105.875 87.175 103.95 88 101.75 88H83.875ZM8.25 88C6.05 88 4.125 87.175 2.475 85.525C0.825 83.875 0 81.95 0 79.75V61.875H8.25V79.75H26.125V88H8.25ZM16.5 71.5V16.5H93.5V71.5H16.5ZM24.75 63.25H85.25V24.75H24.75V63.25ZM24.75 63.25V24.75V63.25Z" fill="black"/>
</svg>
